<mxfile host="www.draw.io" agent="Mozilla/5.0 (Windows NT 10.0; Win64; x64) AppleWebKit/537.36 (KHTML, like Gecko) Chrome/140.0.0.0 Safari/537.36" version="28.2.0">
  <diagram name="Página-1" id="Ih2d4zSB0zV8XrECTHSv">
    <mxGraphModel grid="1" page="1" gridSize="10" guides="1" tooltips="1" connect="1" arrows="1" fold="1" pageScale="1" pageWidth="827" pageHeight="1169" math="0" shadow="0">
      <root>
        <mxCell id="0" />
        <mxCell id="1" parent="0" />
        <mxCell id="Ar_-EQodSmLHUhyILNNW-2" value="" style="rounded=0;whiteSpace=wrap;html=1;" vertex="1" parent="1">
          <mxGeometry x="450" y="60" width="230" height="250" as="geometry" />
        </mxCell>
        <mxCell id="Ar_-EQodSmLHUhyILNNW-3" value="" style="endArrow=none;html=1;rounded=0;exitX=0;exitY=0.25;exitDx=0;exitDy=0;entryX=1;entryY=0.24;entryDx=0;entryDy=0;elbow=horizontal;entryPerimeter=0;" edge="1" parent="1" source="Ar_-EQodSmLHUhyILNNW-2" target="Ar_-EQodSmLHUhyILNNW-2">
          <mxGeometry width="50" height="50" relative="1" as="geometry">
            <mxPoint x="450" y="130" as="sourcePoint" />
            <mxPoint x="680" y="130" as="targetPoint" />
            <Array as="points" />
          </mxGeometry>
        </mxCell>
        <mxCell id="Ar_-EQodSmLHUhyILNNW-6" value="" style="endArrow=none;html=1;rounded=0;entryX=1;entryY=0.75;entryDx=0;entryDy=0;exitX=0;exitY=0.75;exitDx=0;exitDy=0;" edge="1" parent="1" source="Ar_-EQodSmLHUhyILNNW-2" target="Ar_-EQodSmLHUhyILNNW-2">
          <mxGeometry width="50" height="50" relative="1" as="geometry">
            <mxPoint x="540" y="260" as="sourcePoint" />
            <mxPoint x="590" y="210" as="targetPoint" />
          </mxGeometry>
        </mxCell>
        <mxCell id="Ar_-EQodSmLHUhyILNNW-8" value="&lt;h2&gt;&lt;font style=&quot;font-size: 22px;&quot;&gt;Aerolínea&lt;/font&gt;&lt;/h2&gt;" style="text;html=1;align=center;verticalAlign=middle;whiteSpace=wrap;rounded=0;" vertex="1" parent="1">
          <mxGeometry x="501.25" y="60" width="127.5" height="60" as="geometry" />
        </mxCell>
        <mxCell id="Ar_-EQodSmLHUhyILNNW-9" value="&lt;font style=&quot;font-size: 18px;&quot;&gt;+ nombre : str&lt;/font&gt;&lt;div&gt;&lt;font style=&quot;font-size: 18px;&quot;&gt;+ codigo : str&lt;/font&gt;&lt;/div&gt;&lt;div&gt;&lt;font style=&quot;font-size: 18px;&quot;&gt;+ vuelos : list(Vuelo)&lt;br&gt;&lt;/font&gt;&lt;br&gt;&lt;/div&gt;" style="text;html=1;align=left;verticalAlign=middle;whiteSpace=wrap;rounded=0;" vertex="1" parent="1">
          <mxGeometry x="460" y="120" width="187.5" height="150" as="geometry" />
        </mxCell>
        <mxCell id="Ar_-EQodSmLHUhyILNNW-27" style="edgeStyle=orthogonalEdgeStyle;rounded=0;orthogonalLoop=1;jettySize=auto;html=1;exitX=0.5;exitY=1;exitDx=0;exitDy=0;entryX=0.5;entryY=0;entryDx=0;entryDy=0;" edge="1" parent="1" source="Ar_-EQodSmLHUhyILNNW-11" target="Ar_-EQodSmLHUhyILNNW-19">
          <mxGeometry relative="1" as="geometry" />
        </mxCell>
        <mxCell id="Ar_-EQodSmLHUhyILNNW-11" value="" style="rounded=0;whiteSpace=wrap;html=1;" vertex="1" parent="1">
          <mxGeometry x="130" y="60" width="230" height="250" as="geometry" />
        </mxCell>
        <mxCell id="Ar_-EQodSmLHUhyILNNW-12" value="" style="endArrow=none;html=1;rounded=0;exitX=0;exitY=0.25;exitDx=0;exitDy=0;entryX=1;entryY=0.24;entryDx=0;entryDy=0;elbow=horizontal;entryPerimeter=0;" edge="1" parent="1" source="Ar_-EQodSmLHUhyILNNW-11" target="Ar_-EQodSmLHUhyILNNW-11">
          <mxGeometry width="50" height="50" relative="1" as="geometry">
            <mxPoint x="130" y="130" as="sourcePoint" />
            <mxPoint x="360" y="130" as="targetPoint" />
            <Array as="points" />
          </mxGeometry>
        </mxCell>
        <mxCell id="Ar_-EQodSmLHUhyILNNW-13" value="" style="endArrow=none;html=1;rounded=0;entryX=1;entryY=0.75;entryDx=0;entryDy=0;exitX=0;exitY=0.75;exitDx=0;exitDy=0;" edge="1" parent="1" source="Ar_-EQodSmLHUhyILNNW-11" target="Ar_-EQodSmLHUhyILNNW-11">
          <mxGeometry width="50" height="50" relative="1" as="geometry">
            <mxPoint x="220" y="260" as="sourcePoint" />
            <mxPoint x="270" y="210" as="targetPoint" />
          </mxGeometry>
        </mxCell>
        <mxCell id="Ar_-EQodSmLHUhyILNNW-14" value="&lt;h2&gt;&lt;font style=&quot;font-size: 22px;&quot;&gt;Pasajero&lt;/font&gt;&lt;/h2&gt;" style="text;html=1;align=center;verticalAlign=middle;whiteSpace=wrap;rounded=0;" vertex="1" parent="1">
          <mxGeometry x="181.25" y="60" width="127.5" height="60" as="geometry" />
        </mxCell>
        <mxCell id="Ar_-EQodSmLHUhyILNNW-15" value="&lt;font&gt;+ nombre : str&lt;/font&gt;&lt;div&gt;&lt;font&gt;+ documento : int&lt;/font&gt;&lt;/div&gt;&lt;div&gt;&lt;font&gt;+ reserva : Reserva&lt;/font&gt;&lt;br&gt;&lt;/div&gt;" style="text;html=1;align=left;verticalAlign=middle;whiteSpace=wrap;rounded=0;fontSize=18;" vertex="1" parent="1">
          <mxGeometry x="140" y="130" width="187.5" height="110" as="geometry" />
        </mxCell>
        <mxCell id="Ar_-EQodSmLHUhyILNNW-16" value="" style="rounded=0;whiteSpace=wrap;html=1;" vertex="1" parent="1">
          <mxGeometry x="130" y="450" width="230" height="250" as="geometry" />
        </mxCell>
        <mxCell id="Ar_-EQodSmLHUhyILNNW-17" value="" style="endArrow=none;html=1;rounded=0;exitX=0;exitY=0.25;exitDx=0;exitDy=0;entryX=1;entryY=0.24;entryDx=0;entryDy=0;elbow=horizontal;entryPerimeter=0;" edge="1" parent="1" source="Ar_-EQodSmLHUhyILNNW-16" target="Ar_-EQodSmLHUhyILNNW-16">
          <mxGeometry width="50" height="50" relative="1" as="geometry">
            <mxPoint x="130" y="520" as="sourcePoint" />
            <mxPoint x="360" y="520" as="targetPoint" />
            <Array as="points" />
          </mxGeometry>
        </mxCell>
        <mxCell id="Ar_-EQodSmLHUhyILNNW-18" value="" style="endArrow=none;html=1;rounded=0;entryX=1;entryY=0.75;entryDx=0;entryDy=0;exitX=0;exitY=0.75;exitDx=0;exitDy=0;" edge="1" parent="1" source="Ar_-EQodSmLHUhyILNNW-16" target="Ar_-EQodSmLHUhyILNNW-16">
          <mxGeometry width="50" height="50" relative="1" as="geometry">
            <mxPoint x="220" y="650" as="sourcePoint" />
            <mxPoint x="270" y="600" as="targetPoint" />
          </mxGeometry>
        </mxCell>
        <mxCell id="Ar_-EQodSmLHUhyILNNW-19" value="&lt;h2&gt;&lt;font style=&quot;font-size: 22px;&quot;&gt;Reserva&lt;/font&gt;&lt;/h2&gt;" style="text;html=1;align=center;verticalAlign=middle;whiteSpace=wrap;rounded=0;" vertex="1" parent="1">
          <mxGeometry x="181.25" y="450" width="127.5" height="60" as="geometry" />
        </mxCell>
        <mxCell id="Ar_-EQodSmLHUhyILNNW-20" value="&lt;font style=&quot;font-size: 18px;&quot;&gt;&lt;font style=&quot;&quot;&gt;+ co&lt;/font&gt;digo_de_reserva : int&lt;/font&gt;&lt;div&gt;&lt;font style=&quot;font-size: 18px;&quot;&gt;&lt;font style=&quot;&quot;&gt;+ vuelo&amp;nbsp;&lt;/font&gt;&lt;span style=&quot;background-color: transparent; color: light-dark(rgb(0, 0, 0), rgb(255, 255, 255));&quot;&gt;Vuelo&lt;/span&gt;&lt;/font&gt;&lt;/div&gt;&lt;div&gt;&lt;font style=&quot;font-size: 18px;&quot;&gt;&lt;font style=&quot;&quot;&gt;+ estado : str&lt;/font&gt;&lt;br&gt;&lt;/font&gt;&lt;/div&gt;&lt;div&gt;&lt;font style=&quot;font-size: 18px;&quot;&gt;+ pasajero : Pasajero&lt;/font&gt;&lt;/div&gt;" style="text;html=1;align=left;verticalAlign=middle;whiteSpace=wrap;rounded=0;" vertex="1" parent="1">
          <mxGeometry x="130" y="500" width="230" height="150" as="geometry" />
        </mxCell>
        <mxCell id="Ar_-EQodSmLHUhyILNNW-21" value="" style="rounded=0;whiteSpace=wrap;html=1;" vertex="1" parent="1">
          <mxGeometry x="450" y="450" width="230" height="250" as="geometry" />
        </mxCell>
        <mxCell id="Ar_-EQodSmLHUhyILNNW-22" value="" style="endArrow=none;html=1;rounded=0;exitX=0;exitY=0.25;exitDx=0;exitDy=0;entryX=1;entryY=0.24;entryDx=0;entryDy=0;elbow=horizontal;entryPerimeter=0;" edge="1" parent="1" source="Ar_-EQodSmLHUhyILNNW-21" target="Ar_-EQodSmLHUhyILNNW-21">
          <mxGeometry width="50" height="50" relative="1" as="geometry">
            <mxPoint x="450" y="520" as="sourcePoint" />
            <mxPoint x="680" y="520" as="targetPoint" />
            <Array as="points" />
          </mxGeometry>
        </mxCell>
        <mxCell id="Ar_-EQodSmLHUhyILNNW-23" value="" style="endArrow=none;html=1;rounded=0;entryX=1;entryY=0.75;entryDx=0;entryDy=0;exitX=0;exitY=0.75;exitDx=0;exitDy=0;" edge="1" parent="1" source="Ar_-EQodSmLHUhyILNNW-21" target="Ar_-EQodSmLHUhyILNNW-21">
          <mxGeometry width="50" height="50" relative="1" as="geometry">
            <mxPoint x="540" y="650" as="sourcePoint" />
            <mxPoint x="590" y="600" as="targetPoint" />
          </mxGeometry>
        </mxCell>
        <mxCell id="Ar_-EQodSmLHUhyILNNW-24" value="&lt;h2&gt;&lt;font style=&quot;font-size: 22px;&quot;&gt;Vuelo&lt;/font&gt;&lt;/h2&gt;" style="text;html=1;align=center;verticalAlign=middle;whiteSpace=wrap;rounded=0;" vertex="1" parent="1">
          <mxGeometry x="501.25" y="450" width="127.5" height="60" as="geometry" />
        </mxCell>
        <mxCell id="Ar_-EQodSmLHUhyILNNW-25" value="&lt;font style=&quot;font-size: 18px;&quot;&gt;+ codigo : str&lt;/font&gt;&lt;div&gt;&lt;font style=&quot;font-size: 18px;&quot;&gt;+ origen : str&lt;/font&gt;&lt;/div&gt;&lt;div&gt;&lt;font style=&quot;font-size: 18px;&quot;&gt;+ destino : str&lt;/font&gt;&lt;/div&gt;&lt;div&gt;&lt;font style=&quot;font-size: 18px;&quot;&gt;+ fecha : datetime&lt;/font&gt;&lt;/div&gt;&lt;div&gt;&lt;span style=&quot;font-size: 18px; background-color: transparent; color: light-dark(rgb(0, 0, 0), rgb(255, 255, 255));&quot;&gt;+ asiento : str&lt;/span&gt;&lt;/div&gt;&lt;div&gt;&lt;br&gt;&lt;/div&gt;" style="text;html=1;align=left;verticalAlign=middle;whiteSpace=wrap;rounded=0;" vertex="1" parent="1">
          <mxGeometry x="460" y="510" width="187.5" height="150" as="geometry" />
        </mxCell>
        <mxCell id="Ar_-EQodSmLHUhyILNNW-29" value="&lt;font style=&quot;font-size: 18px;&quot;&gt;hacer_reserva()&lt;/font&gt;&lt;div&gt;&lt;font style=&quot;font-size: 18px;&quot;&gt;cancelar_reserva()&lt;/font&gt;&lt;/div&gt;" style="text;html=1;align=left;verticalAlign=middle;whiteSpace=wrap;rounded=0;" vertex="1" parent="1">
          <mxGeometry x="140" y="250" width="187.5" height="60" as="geometry" />
        </mxCell>
        <mxCell id="Ar_-EQodSmLHUhyILNNW-34" style="edgeStyle=orthogonalEdgeStyle;rounded=0;orthogonalLoop=1;jettySize=auto;html=1;exitX=0.5;exitY=1;exitDx=0;exitDy=0;entryX=0;entryY=0.5;entryDx=0;entryDy=0;" edge="1" parent="1" source="Ar_-EQodSmLHUhyILNNW-30" target="Ar_-EQodSmLHUhyILNNW-21">
          <mxGeometry relative="1" as="geometry" />
        </mxCell>
        <mxCell id="Ar_-EQodSmLHUhyILNNW-30" value="&lt;span style=&quot;font-size: 18px;&quot;&gt;confirmar()&lt;/span&gt;&lt;div&gt;&lt;span style=&quot;font-size: 18px;&quot;&gt;cancelar()&lt;/span&gt;&lt;/div&gt;" style="text;html=1;align=left;verticalAlign=middle;whiteSpace=wrap;rounded=0;" vertex="1" parent="1">
          <mxGeometry x="140" y="640" width="187.5" height="60" as="geometry" />
        </mxCell>
        <mxCell id="Ar_-EQodSmLHUhyILNNW-31" value="&lt;div&gt;&lt;span style=&quot;font-size: 18px;&quot;&gt;mostrar_info()&lt;/span&gt;&lt;/div&gt;&lt;div&gt;&lt;span style=&quot;font-size: 18px; background-color: transparent; color: light-dark(rgb(0, 0, 0), rgb(255, 255, 255));&quot;&gt;reservar_asiento()&lt;/span&gt;&lt;/div&gt;" style="text;html=1;align=left;verticalAlign=middle;whiteSpace=wrap;rounded=0;" vertex="1" parent="1">
          <mxGeometry x="470" y="640" width="187.5" height="60" as="geometry" />
        </mxCell>
        <mxCell id="Ar_-EQodSmLHUhyILNNW-37" style="edgeStyle=orthogonalEdgeStyle;rounded=0;orthogonalLoop=1;jettySize=auto;html=1;exitX=0.5;exitY=1;exitDx=0;exitDy=0;entryX=0.5;entryY=0;entryDx=0;entryDy=0;" edge="1" parent="1" source="Ar_-EQodSmLHUhyILNNW-36" target="Ar_-EQodSmLHUhyILNNW-24">
          <mxGeometry relative="1" as="geometry" />
        </mxCell>
        <mxCell id="Ar_-EQodSmLHUhyILNNW-36" value="&lt;div&gt;&lt;span style=&quot;font-size: 18px;&quot;&gt;vuelo_dispo()&lt;/span&gt;&lt;/div&gt;&lt;div&gt;&lt;span style=&quot;font-size: 18px;&quot;&gt;agg_vuelo()&lt;/span&gt;&lt;/div&gt;" style="text;html=1;align=left;verticalAlign=middle;whiteSpace=wrap;rounded=0;" vertex="1" parent="1">
          <mxGeometry x="471.25" y="250" width="187.5" height="60" as="geometry" />
        </mxCell>
        <mxCell id="Ar_-EQodSmLHUhyILNNW-38" value="1" style="text;html=1;align=center;verticalAlign=middle;whiteSpace=wrap;rounded=0;fontSize=15;" vertex="1" parent="1">
          <mxGeometry x="190" y="310" width="60" height="30" as="geometry" />
        </mxCell>
        <mxCell id="Ar_-EQodSmLHUhyILNNW-40" value="1" style="text;html=1;align=center;verticalAlign=middle;whiteSpace=wrap;rounded=0;fontSize=15;" vertex="1" parent="1">
          <mxGeometry x="181.25" y="700" width="60" height="30" as="geometry" />
        </mxCell>
        <mxCell id="Ar_-EQodSmLHUhyILNNW-41" value="1" style="text;html=1;align=center;verticalAlign=middle;whiteSpace=wrap;rounded=0;fontSize=15;" vertex="1" parent="1">
          <mxGeometry x="400" y="580" width="60" height="30" as="geometry" />
        </mxCell>
        <mxCell id="Ar_-EQodSmLHUhyILNNW-42" value="1" style="text;html=1;align=center;verticalAlign=middle;whiteSpace=wrap;rounded=0;fontSize=15;" vertex="1" parent="1">
          <mxGeometry x="510" y="310" width="60" height="30" as="geometry" />
        </mxCell>
        <mxCell id="Ar_-EQodSmLHUhyILNNW-44" style="edgeStyle=orthogonalEdgeStyle;rounded=0;orthogonalLoop=1;jettySize=auto;html=1;exitX=0.5;exitY=1;exitDx=0;exitDy=0;" edge="1" parent="1" source="Ar_-EQodSmLHUhyILNNW-38" target="Ar_-EQodSmLHUhyILNNW-38">
          <mxGeometry relative="1" as="geometry" />
        </mxCell>
        <mxCell id="Ar_-EQodSmLHUhyILNNW-45" value="0.. *" style="text;html=1;align=center;verticalAlign=middle;whiteSpace=wrap;rounded=0;fontSize=15;" vertex="1" parent="1">
          <mxGeometry x="190" y="410" width="60" height="30" as="geometry" />
        </mxCell>
        <mxCell id="Ar_-EQodSmLHUhyILNNW-46" value="0.. *" style="text;html=1;align=center;verticalAlign=middle;whiteSpace=wrap;rounded=0;fontSize=15;" vertex="1" parent="1">
          <mxGeometry x="510" y="410" width="60" height="30" as="geometry" />
        </mxCell>
      </root>
    </mxGraphModel>
  </diagram>
</mxfile>
